<svg id="visual" viewBox="0 0 900 600" width="900" height="600" xmlns="http://www.w3.org/2000/svg" xmlns:xlink="http://www.w3.org/1999/xlink" version="1.1"><rect x="0" y="0" width="900" height="600" fill="#001220"></rect><path d="M0 197L21.5 199.5C43 202 86 207 128.8 215.5C171.7 224 214.3 236 257.2 236.2C300 236.3 343 224.7 385.8 221.2C428.7 217.7 471.3 222.3 514.2 223C557 223.7 600 220.3 642.8 214.7C685.7 209 728.3 201 771.2 199C814 197 857 201 878.5 203L900 205L900 0L878.5 0C857 0 814 0 771.2 0C728.3 0 685.7 0 642.8 0C600 0 557 0 514.2 0C471.3 0 428.7 0 385.8 0C343 0 300 0 257.2 0C214.3 0 171.7 0 128.8 0C86 0 43 0 21.5 0L0 0Z" fill="#fa7268"></path><path d="M0 138L21.5 134.7C43 131.3 86 124.7 128.8 123C171.7 121.3 214.3 124.7 257.2 137.2C300 149.7 343 171.3 385.8 174.5C428.7 177.7 471.3 162.3 514.2 150C557 137.7 600 128.3 642.8 127C685.7 125.7 728.3 132.3 771.2 138.2C814 144 857 149 878.5 151.5L900 154L900 0L878.5 0C857 0 814 0 771.2 0C728.3 0 685.7 0 642.8 0C600 0 557 0 514.2 0C471.3 0 428.7 0 385.8 0C343 0 300 0 257.2 0C214.3 0 171.7 0 128.8 0C86 0 43 0 21.5 0L0 0Z" fill="#ef5f67"></path><path d="M0 128L21.5 131.2C43 134.3 86 140.7 128.8 143C171.7 145.3 214.3 143.7 257.2 138.7C300 133.7 343 125.3 385.8 116.3C428.7 107.3 471.3 97.7 514.2 94.3C557 91 600 94 642.8 102.3C685.7 110.7 728.3 124.3 771.2 134.3C814 144.3 857 150.7 878.5 153.8L900 157L900 0L878.5 0C857 0 814 0 771.2 0C728.3 0 685.7 0 642.8 0C600 0 557 0 514.2 0C471.3 0 428.7 0 385.8 0C343 0 300 0 257.2 0C214.3 0 171.7 0 128.8 0C86 0 43 0 21.5 0L0 0Z" fill="#e34c67"></path><path d="M0 89L21.5 85.7C43 82.3 86 75.7 128.8 75C171.7 74.3 214.3 79.7 257.2 85C300 90.3 343 95.7 385.8 94.3C428.7 93 471.3 85 514.2 84C557 83 600 89 642.8 94.8C685.7 100.7 728.3 106.3 771.2 104.5C814 102.7 857 93.3 878.5 88.7L900 84L900 0L878.5 0C857 0 814 0 771.2 0C728.3 0 685.7 0 642.8 0C600 0 557 0 514.2 0C471.3 0 428.7 0 385.8 0C343 0 300 0 257.2 0C214.3 0 171.7 0 128.8 0C86 0 43 0 21.5 0L0 0Z" fill="#d53867"></path><path d="M0 37L21.5 39.2C43 41.3 86 45.7 128.8 44.2C171.7 42.7 214.3 35.3 257.2 38.8C300 42.3 343 56.7 385.8 60.2C428.7 63.7 471.3 56.3 514.2 48.8C557 41.3 600 33.7 642.8 37.5C685.7 41.3 728.3 56.7 771.2 60.7C814 64.7 857 57.3 878.5 53.7L900 50L900 0L878.5 0C857 0 814 0 771.2 0C728.3 0 685.7 0 642.8 0C600 0 557 0 514.2 0C471.3 0 428.7 0 385.8 0C343 0 300 0 257.2 0C214.3 0 171.7 0 128.8 0C86 0 43 0 21.5 0L0 0Z" fill="#c62368"></path></svg>