<svg id="visual" viewBox="0 0 900 600" width="900" height="600" xmlns="http://www.w3.org/2000/svg" xmlns:xlink="http://www.w3.org/1999/xlink" version="1.1"><path d="M0 91L13.7 93C27.3 95 54.7 99 82 102C109.3 105 136.7 107 163.8 104C191 101 218 93 245.2 86C272.3 79 299.7 73 327 80C354.3 87 381.7 107 409 106C436.3 105 463.7 83 491 76C518.3 69 545.7 77 573 83C600.3 89 627.7 93 654.8 88C682 83 709 69 736.2 63C763.3 57 790.7 59 818 60C845.3 61 872.7 61 886.3 61L900 61L900 0L886.3 0C872.7 0 845.3 0 818 0C790.7 0 763.3 0 736.2 0C709 0 682 0 654.8 0C627.7 0 600.3 0 573 0C545.7 0 518.3 0 491 0C463.7 0 436.3 0 409 0C381.7 0 354.3 0 327 0C299.7 0 272.3 0 245.2 0C218 0 191 0 163.8 0C136.7 0 109.3 0 82 0C54.7 0 27.3 0 13.7 0L0 0Z" fill="#6198ff"></path><path d="M0 217L13.7 207C27.3 197 54.7 177 82 169C109.3 161 136.7 165 163.8 174C191 183 218 197 245.2 205C272.3 213 299.7 215 327 222C354.3 229 381.7 241 409 224C436.3 207 463.7 161 491 146C518.3 131 545.7 147 573 166C600.3 185 627.7 207 654.8 201C682 195 709 161 736.2 152C763.3 143 790.7 159 818 158C845.3 157 872.7 139 886.3 130L900 121L900 59L886.3 59C872.7 59 845.3 59 818 58C790.7 57 763.3 55 736.2 61C709 67 682 81 654.8 86C627.7 91 600.3 87 573 81C545.7 75 518.3 67 491 74C463.7 81 436.3 103 409 104C381.7 105 354.3 85 327 78C299.7 71 272.3 77 245.2 84C218 91 191 99 163.8 102C136.7 105 109.3 103 82 100C54.7 97 27.3 93 13.7 91L0 89Z" fill="#3c80ff"></path><path d="M0 313L13.7 334C27.3 355 54.7 397 82 402C109.3 407 136.7 375 163.8 370C191 365 218 387 245.2 393C272.3 399 299.7 389 327 377C354.3 365 381.7 351 409 350C436.3 349 463.7 361 491 361C518.3 361 545.7 349 573 345C600.3 341 627.7 345 654.8 352C682 359 709 369 736.2 372C763.3 375 790.7 371 818 373C845.3 375 872.7 383 886.3 387L900 391L900 119L886.3 128C872.7 137 845.3 155 818 156C790.7 157 763.3 141 736.2 150C709 159 682 193 654.8 199C627.7 205 600.3 183 573 164C545.7 145 518.3 129 491 144C463.7 159 436.3 205 409 222C381.7 239 354.3 227 327 220C299.7 213 272.3 211 245.2 203C218 195 191 181 163.8 172C136.7 163 109.3 159 82 167C54.7 175 27.3 195 13.7 205L0 215Z" fill="#0066ff"></path><path d="M0 541L13.7 543C27.3 545 54.7 549 82 543C109.3 537 136.7 521 163.8 519C191 517 218 529 245.2 538C272.3 547 299.7 553 327 553C354.3 553 381.7 547 409 540C436.3 533 463.7 525 491 519C518.3 513 545.7 509 573 515C600.3 521 627.7 537 654.8 545C682 553 709 553 736.2 547C763.3 541 790.7 529 818 527C845.3 525 872.7 533 886.3 537L900 541L900 389L886.3 385C872.7 381 845.3 373 818 371C790.7 369 763.3 373 736.2 370C709 367 682 357 654.8 350C627.7 343 600.3 339 573 343C545.7 347 518.3 359 491 359C463.7 359 436.3 347 409 348C381.7 349 354.3 363 327 375C299.7 387 272.3 397 245.2 391C218 385 191 363 163.8 368C136.7 373 109.3 405 82 400C54.7 395 27.3 353 13.7 332L0 311Z" fill="#0059dd"></path><path d="M0 601L13.7 601C27.3 601 54.7 601 82 601C109.3 601 136.7 601 163.8 601C191 601 218 601 245.2 601C272.3 601 299.7 601 327 601C354.3 601 381.7 601 409 601C436.3 601 463.7 601 491 601C518.3 601 545.7 601 573 601C600.3 601 627.7 601 654.8 601C682 601 709 601 736.2 601C763.3 601 790.7 601 818 601C845.3 601 872.7 601 886.3 601L900 601L900 539L886.3 535C872.7 531 845.3 523 818 525C790.7 527 763.3 539 736.2 545C709 551 682 551 654.8 543C627.7 535 600.3 519 573 513C545.7 507 518.3 511 491 517C463.7 523 436.3 531 409 538C381.7 545 354.3 551 327 551C299.7 551 272.3 545 245.2 536C218 527 191 515 163.8 517C136.7 519 109.3 535 82 541C54.7 547 27.3 543 13.7 541L0 539Z" fill="#004cbb"></path></svg>