<svg id="visual" viewBox="0 0 900 600" width="900" height="600" xmlns="http://www.w3.org/2000/svg" xmlns:xlink="http://www.w3.org/1999/xlink" version="1.1"><rect x="0" y="0" width="900" height="600" fill="#001220"></rect><path d="M0 401L21.5 398.5C43 396 86 391 128.8 382.5C171.7 374 214.3 362 257.2 361.8C300 361.7 343 373.3 385.8 376.8C428.7 380.3 471.3 375.7 514.2 375C557 374.3 600 377.7 642.8 383.3C685.7 389 728.3 397 771.2 399C814 401 857 397 878.5 395L900 393L900 601L878.5 601C857 601 814 601 771.2 601C728.3 601 685.7 601 642.8 601C600 601 557 601 514.2 601C471.3 601 428.7 601 385.8 601C343 601 300 601 257.2 601C214.3 601 171.7 601 128.8 601C86 601 43 601 21.5 601L0 601Z" fill="#fa7268"></path><path d="M0 460L21.5 463.3C43 466.7 86 473.3 128.8 475C171.7 476.7 214.3 473.3 257.2 460.8C300 448.3 343 426.7 385.8 423.5C428.7 420.3 471.3 435.7 514.2 448C557 460.3 600 469.7 642.8 471C685.7 472.3 728.3 465.7 771.2 459.8C814 454 857 449 878.5 446.5L900 444L900 601L878.5 601C857 601 814 601 771.2 601C728.3 601 685.7 601 642.8 601C600 601 557 601 514.2 601C471.3 601 428.7 601 385.8 601C343 601 300 601 257.2 601C214.3 601 171.7 601 128.8 601C86 601 43 601 21.5 601L0 601Z" fill="#ef5f67"></path><path d="M0 470L21.5 466.8C43 463.7 86 457.3 128.8 455C171.7 452.7 214.3 454.3 257.2 459.3C300 464.3 343 472.7 385.8 481.7C428.7 490.7 471.3 500.3 514.2 503.7C557 507 600 504 642.8 495.7C685.7 487.3 728.3 473.7 771.2 463.7C814 453.7 857 447.3 878.5 444.2L900 441L900 601L878.5 601C857 601 814 601 771.2 601C728.3 601 685.7 601 642.8 601C600 601 557 601 514.2 601C471.3 601 428.7 601 385.8 601C343 601 300 601 257.2 601C214.3 601 171.7 601 128.8 601C86 601 43 601 21.5 601L0 601Z" fill="#e34c67"></path><path d="M0 509L21.5 512.3C43 515.7 86 522.3 128.8 523C171.7 523.7 214.3 518.3 257.2 513C300 507.7 343 502.3 385.8 503.7C428.7 505 471.3 513 514.2 514C557 515 600 509 642.8 503.2C685.7 497.3 728.3 491.7 771.2 493.5C814 495.3 857 504.7 878.5 509.3L900 514L900 601L878.5 601C857 601 814 601 771.2 601C728.3 601 685.7 601 642.8 601C600 601 557 601 514.2 601C471.3 601 428.7 601 385.8 601C343 601 300 601 257.2 601C214.3 601 171.7 601 128.8 601C86 601 43 601 21.5 601L0 601Z" fill="#d53867"></path><path d="M0 561L21.5 558.8C43 556.7 86 552.3 128.8 553.8C171.7 555.3 214.3 562.7 257.2 559.2C300 555.7 343 541.3 385.8 537.8C428.7 534.3 471.3 541.7 514.2 549.2C557 556.7 600 564.3 642.8 560.5C685.7 556.7 728.3 541.3 771.2 537.3C814 533.3 857 540.7 878.5 544.3L900 548L900 601L878.5 601C857 601 814 601 771.2 601C728.3 601 685.7 601 642.8 601C600 601 557 601 514.2 601C471.3 601 428.7 601 385.8 601C343 601 300 601 257.2 601C214.3 601 171.7 601 128.8 601C86 601 43 601 21.5 601L0 601Z" fill="#c62368"></path></svg>